<?xml version="1.0" encoding="UTF-8" standalone="no"?>
<!-- Uploaded to: SVG Repo, www.svgrepo.com, Generator: SVG Repo Mixer Tools -->

<svg
   width="50"
   height="50"
   viewBox="0 0 1.5 1.5"
   fill="none"
   version="1.1"
   id="svg1"
   xmlns="http://www.w3.org/2000/svg"
   xmlns:svg="http://www.w3.org/2000/svg">
  <defs
     id="defs1" />
  <path
     d="M 1.4827019,0.74208335 C 1.4809938,0.60269774 1.4394829,0.46670345 1.3630655,0.35011681 1.2866479,0.23353037 1.1785134,0.14120678 1.0513887,0.08401999 0.92425472,0.026833 0.78343374,0.00716441 0.6455019,0.02732947 0.50757291,0.04749536 0.3782757,0.1066545 0.27284099,0.19784237 0.16740539,0.28902954 0.0902226,0.40844681 0.05038179,0.54202922 0.01054228,0.67561342 0.00970287,0.81779682 0.04796372,0.95184263 0.08622538,1.0858887 0.16199388,1.206202 0.26634608,1.2986287 0.37069721,1.3910557 0.49928765,1.4517381 0.63697076,1.4735259 V 0.95511589 H 0.4541113 V 0.74208335 H 0.636971 V 0.58025163 c -0.004234,-0.0376274 -1.5615e-4,-0.0757271 0.0119511,-0.11160802 0.0121041,-0.0358811 0.0319364,-0.0686682 0.0580947,-0.0960467 0.0261583,-0.0273796 0.0580035,-0.0486839 0.0932955,-0.0624085 0.0352915,-0.0137252 0.0731714,-0.0195372 0.11095075,-0.0170256 0.0548396,7.4311e-4 0.10955165,0.005641 0.16366035,0.0146293 v 0.18286093 h -0.09143 c -0.0157616,-0.001995 -0.0317812,-4.1514e-4 -0.0468486,0.004625 -0.0150759,0.005031 -0.028828,0.0133857 -0.0402385,0.0244445 -0.0114105,0.0110596 -0.020188,0.0245422 -0.0256828,0.0394479 -0.005503,0.0149122 -0.00758,0.0308674 -0.00609,0.0466842 V 0.74391392 H 1.0676079 L 1.0346929,0.9569467 H 0.86554671 V 1.4689565 C 1.0383408,1.4416274 1.1956193,1.3532697 1.3088466,1.2199094 1.4220739,1.0865492 1.4837527,0.91702814 1.4827013,0.74208546 Z"
     fill="#000000"
     id="path1"
     style="stroke-width:1" />
</svg>
