<?xml version="1.0" encoding="UTF-8" standalone="no"?>
<!-- Uploaded to: SVG Repo, www.svgrepo.com, Generator: SVG Repo Mixer Tools -->

<svg
   width="50"
   height="50"
   viewBox="0 0 1.5 1.5"
   fill="none"
   version="1.1"
   id="svg1"
   xmlns="http://www.w3.org/2000/svg"
   xmlns:svg="http://www.w3.org/2000/svg">
  <defs
     id="defs1" />
  <path
     d="M 1.0589003,0.01845018 H 0.44663473 c -0.2659484,0 -0.42449451,0.15854611 -0.42449451,0.42449451 V 1.0544797 c 0,0.266679 0.15854611,0.4252251 0.42449451,0.4252251 H 1.0581697 c 0.2659484,0 0.4244945,-0.1585461 0.4244945,-0.4244945 V 0.44294469 C 1.4833948,0.17699629 1.3248487,0.01845018 1.0589003,0.01845018 Z M 0.75276754,1.0325609 c -0.15635425,0 -0.28348338,-0.12712915 -0.28348338,-0.2834834 0,-0.15635425 0.12712913,-0.28348338 0.28348338,-0.28348338 0.15635425,0 0.28348336,0.12712913 0.28348336,0.28348338 0,0.15635425 -0.12712911,0.2834834 -0.28348336,0.2834834 z M 1.1852988,0.3749963 c -0.00366,0.008764 -0.00876,0.016805 -0.015343,0.0241112 -0.00731,0.006576 -0.015343,0.0116903 -0.02411,0.0153429 -0.00876,0.003658 -0.018266,0.005846 -0.027764,0.005846 -0.019727,0 -0.037993,-0.007305 -0.051875,-0.0211881 -0.00658,-0.007305 -0.01169,-0.0153429 -0.015343,-0.0241112 -0.00366,-0.008764 -0.00585,-0.018266 -0.00585,-0.0277638 0,-0.009494 0.00219,-0.0189965 0.00585,-0.0277638 0.00366,-0.009494 0.00876,-0.016804 0.015343,-0.0241102 0.016805,-0.016805 0.042376,-0.0248417 0.065757,-0.019727 0.00512,7.3062e-4 0.00949,0.002188 0.013882,0.004387 0.00439,0.001459 0.00876,0.003658 0.013151,0.006576 0.00366,0.002188 0.00731,0.005846 0.01096,0.008764 0.00658,0.007305 0.01169,0.0146124 0.015343,0.0241102 0.00366,0.008764 0.00585,0.018266 0.00585,0.0277638 0,0.009494 -0.00219,0.0189965 -0.00585,0.0277638 z"
     fill="#292D32"
     id="path1"
     style="fill:#000000;stroke-width:1" />
</svg>
